<svg xmlns="http://www.w3.org/2000/svg" xmlns:xlink="http://www.w3.org/1999/xlink" width="500" zoomAndPan="magnify" viewBox="0 0 375 374.999991" height="500" preserveAspectRatio="xMidYMid meet" version="1.0"><defs><clipPath id="id1"><path d="M 94.28125 131.140625 L 129.53125 131.140625 L 129.53125 237.640625 L 94.28125 237.640625 Z M 94.28125 131.140625 " clip-rule="nonzero"/></clipPath><clipPath id="id2"><path d="M 94.28125 113.648438 L 166.28125 113.648438 L 166.28125 148.898438 L 94.28125 148.898438 Z M 94.28125 113.648438 " clip-rule="nonzero"/></clipPath><clipPath id="id3"><path d="M 148.621094 113.378906 L 183.871094 113.378906 L 183.871094 156.878906 L 148.621094 156.878906 Z M 148.621094 113.378906 " clip-rule="nonzero"/></clipPath><clipPath id="id4"><path d="M 148.621094 138.457031 L 183.871094 138.457031 L 183.871094 187.957031 L 148.621094 187.957031 Z M 148.621094 138.457031 " clip-rule="nonzero"/></clipPath><clipPath id="id5"><path d="M 202.898438 131.140625 L 238.148438 131.140625 L 238.148438 237.640625 L 202.898438 237.640625 Z M 202.898438 131.140625 " clip-rule="nonzero"/></clipPath><clipPath id="id6"><path d="M 202.898438 113.648438 L 274.898438 113.648438 L 274.898438 148.898438 L 202.898438 148.898438 Z M 202.898438 113.648438 " clip-rule="nonzero"/></clipPath><clipPath id="id7"><path d="M 257.238281 113.378906 L 292.488281 113.378906 L 292.488281 156.878906 L 257.238281 156.878906 Z M 257.238281 113.378906 " clip-rule="nonzero"/></clipPath><clipPath id="id8"><path d="M 257.238281 138.457031 L 292.488281 138.457031 L 292.488281 237.457031 L 257.238281 237.457031 Z M 257.238281 138.457031 " clip-rule="nonzero"/></clipPath><clipPath id="id9"><path d="M 99 155 L 182 155 L 182 221 L 99 221 Z M 99 155 " clip-rule="nonzero"/></clipPath><clipPath id="id10"><path d="M 117.625 220.171875 L 99.828125 189.746094 L 169.742188 148.847656 L 187.542969 179.273438 Z M 117.625 220.171875 " clip-rule="nonzero"/></clipPath></defs><g clip-path="url(#id1)"><path fill="#ffffff" d="M 106.039062 236.609375 C 107.84375 237.230469 109.898438 237.636719 111.917969 237.636719 C 113.933594 237.636719 115.871094 237.289062 117.660156 236.667969 C 117.699219 236.648438 117.738281 236.648438 117.773438 236.628906 C 124.492188 234.152344 129.4375 227.613281 129.53125 218.578125 L 129.53125 131.148438 L 94.28125 131.148438 L 94.28125 218.515625 C 94.375 227.652344 99.246094 234.191406 106.039062 236.609375 " fill-opacity="1" fill-rule="nonzero"/></g><g clip-path="url(#id2)"><path fill="#ffffff" d="M 95.308594 137.140625 C 94.691406 135.339844 94.285156 133.28125 94.285156 131.261719 C 94.285156 129.246094 94.632812 127.304688 95.25 125.519531 C 95.269531 125.480469 95.269531 125.441406 95.289062 125.402344 C 97.765625 118.6875 104.296875 113.742188 112.558594 113.648438 L 166.28125 113.648438 L 166.28125 148.898438 L 112.601562 148.898438 C 104.257812 148.800781 97.726562 143.933594 95.308594 137.140625 " fill-opacity="1" fill-rule="nonzero"/></g><g clip-path="url(#id3)"><path fill="#ffffff" d="M 160.378906 114.402344 C 162.179688 113.785156 164.238281 113.382812 166.253906 113.382812 C 168.273438 113.382812 170.210938 113.730469 172 114.34375 C 172.039062 114.363281 172.078125 114.363281 172.113281 114.382812 C 178.832031 116.847656 183.777344 123.355469 183.871094 130.960938 L 183.871094 156.875 L 148.621094 156.875 L 148.621094 130.980469 C 148.714844 123.316406 153.585938 116.808594 160.378906 114.402344 " fill-opacity="1" fill-rule="nonzero"/></g><g clip-path="url(#id4)"><path fill="#ffffff" d="M 160.378906 186.933594 C 162.183594 187.550781 164.238281 187.957031 166.253906 187.957031 C 168.273438 187.957031 170.210938 187.609375 172 186.992188 C 172.039062 186.972656 172.078125 186.972656 172.113281 186.953125 C 178.832031 184.480469 183.777344 177.953125 183.871094 170.195312 L 183.871094 138.460938 L 148.621094 138.460938 L 148.621094 170.171875 C 148.714844 177.992188 153.585938 184.519531 160.378906 186.933594 " fill-opacity="1" fill-rule="nonzero"/></g><g clip-path="url(#id5)"><path fill="#ffffff" d="M 214.652344 236.609375 C 216.460938 237.230469 218.515625 237.636719 220.53125 237.636719 C 222.546875 237.636719 224.488281 237.289062 226.277344 236.667969 C 226.316406 236.648438 226.351562 236.648438 226.390625 236.628906 C 233.105469 234.152344 238.050781 227.613281 238.148438 218.578125 L 238.148438 131.148438 L 202.898438 131.148438 L 202.898438 218.515625 C 202.992188 227.652344 207.863281 234.191406 214.652344 236.609375 " fill-opacity="1" fill-rule="nonzero"/></g><g clip-path="url(#id6)"><path fill="#ffffff" d="M 203.925781 137.140625 C 203.308594 135.339844 202.902344 133.28125 202.902344 131.261719 C 202.902344 129.246094 203.25 127.304688 203.867188 125.519531 C 203.886719 125.480469 203.886719 125.441406 203.90625 125.402344 C 206.378906 118.6875 212.914062 113.742188 221.175781 113.648438 L 274.898438 113.648438 L 274.898438 148.898438 L 221.214844 148.898438 C 212.875 148.800781 206.339844 143.933594 203.925781 137.140625 " fill-opacity="1" fill-rule="nonzero"/></g><g clip-path="url(#id7)"><path fill="#ffffff" d="M 268.992188 114.402344 C 270.792969 113.785156 272.855469 113.382812 274.871094 113.382812 C 276.886719 113.382812 278.828125 113.730469 280.617188 114.34375 C 280.65625 114.363281 280.691406 114.363281 280.730469 114.382812 C 287.445312 116.847656 292.390625 123.355469 292.488281 130.960938 L 292.488281 156.875 L 257.238281 156.875 L 257.238281 130.980469 C 257.332031 123.316406 262.203125 116.808594 268.992188 114.402344 " fill-opacity="1" fill-rule="nonzero"/></g><g clip-path="url(#id8)"><path fill="#ffffff" d="M 268.992188 236.429688 C 270.800781 237.046875 272.855469 237.449219 274.871094 237.449219 C 276.886719 237.449219 278.828125 237.105469 280.617188 236.484375 C 280.65625 236.464844 280.691406 236.464844 280.730469 236.445312 C 287.445312 233.976562 292.390625 227.449219 292.488281 218.59375 L 292.488281 138.464844 L 257.238281 138.464844 L 257.238281 218.53125 C 257.332031 227.488281 262.203125 234.015625 268.992188 236.429688 " fill-opacity="1" fill-rule="nonzero"/></g><g clip-path="url(#id9)"><g clip-path="url(#id10)"><path fill="#ffffff" d="M 180.71875 169.644531 C 180.339844 167.773438 179.652344 165.792969 178.636719 164.054688 C 177.617188 162.3125 176.335938 160.8125 174.898438 159.582031 C 174.863281 159.5625 174.84375 159.527344 174.808594 159.503906 C 169.277344 154.960938 161.128906 153.996094 153.765625 158.195312 L 99.828125 189.746094 L 117.628906 220.171875 L 171.523438 188.644531 C 178.867188 184.238281 182.054688 176.730469 180.71875 169.644531 " fill-opacity="1" fill-rule="nonzero"/></g></g></svg>